<svg width="15" height="14" viewBox="0 0 15 14" fill="none" xmlns="http://www.w3.org/2000/svg">
<g id="icon-wrapper" clip-path="url(#clip0_369_12134)">
<path id="Union" d="M12.75 3.93652V12.249C12.75 12.7132 12.5656 13.1583 12.2374 13.4865C11.9092 13.8146 11.4641 13.999 11 13.999H4C3.53587 13.999 3.09075 13.8146 2.76256 13.4865C2.43437 13.1583 2.25 12.7132 2.25 12.249V1.74902C2.25 1.28489 2.43437 0.839775 2.76256 0.511587C3.09075 0.183398 3.53587 -0.000976562 4 -0.000976562H8.8125L12.75 3.93652ZM10.125 3.93652C9.7769 3.93652 9.44306 3.79824 9.19692 3.5521C8.95078 3.30596 8.8125 2.97212 8.8125 2.62402V0.874023H4C3.76794 0.874023 3.54538 0.966211 3.38128 1.1303C3.21719 1.2944 3.125 1.51696 3.125 1.74902V12.249C3.125 12.4811 3.21719 12.7036 3.38128 12.8677C3.54538 13.0318 3.76794 13.124 4 13.124H11C11.2321 13.124 11.4546 13.0318 11.6187 12.8677C11.7828 12.7036 11.875 12.4811 11.875 12.249V3.93652H10.125Z" fill="black"/>
</g>
<defs>
<clipPath id="clip0_369_12134">
<rect width="14" height="14" fill="white" transform="translate(0.5)"/>
</clipPath>
</defs>
</svg>
