<svg width="300" height="300" viewBox="0 0 300 300" fill="none" xmlns="http://www.w3.org/2000/svg">
<path d="M123.807 245.299C148.82 245.299 172.26 237.818 191.767 225.039L260.671 293.455C265.233 297.818 271.054 300 277.347 300C290.404 300 300 289.87 300 277.091C300 271.169 297.955 265.403 293.55 261.039L225.118 192.935C239.276 172.987 247.614 148.831 247.614 122.649C247.614 55.1688 191.924 0 123.807 0C55.8469 0 0 55.1688 0 122.649C0 190.13 55.6896 245.299 123.807 245.299ZM123.807 212.571C73.9381 212.571 33.0362 172.052 33.0362 122.649C33.0362 73.2467 73.9381 32.7273 123.807 32.7273C173.676 32.7273 214.578 73.2467 214.578 122.649C214.578 172.052 173.676 212.571 123.807 212.571ZM77.3991 113.61H171.002C177.451 113.61 182.486 108.312 182.486 102.078C182.486 95.6883 177.451 90.7013 171.002 90.7013H77.3991C70.7918 90.7013 66.0724 95.6883 66.0724 102.078C66.0724 108.312 70.9491 113.61 77.3991 113.61ZM77.3991 154.597H144.887C151.18 154.597 156.371 149.455 156.371 143.221C156.371 136.831 151.337 131.688 144.887 131.688H77.3991C70.7918 131.688 66.0724 136.831 66.0724 143.221C66.0724 149.455 70.9491 154.597 77.3991 154.597Z" fill="#5B86E5"/>
</svg>
